<svg xmlns="http://www.w3.org/2000/svg" viewBox="0 0 900 900" role="img" aria-labelledby="title desc">
  <title id="title">MBTI relationship podcast hero artwork</title>
  <desc id="desc">A polished 3D-style podcast hero with a microphone, relationship chat bubbles, profile cards, notebook, mug, and heart.</desc>
  <defs>
    <radialGradient id="bgBlue" cx="48%" cy="42%" r="60%">
      <stop offset="0" stop-color="#3674ff"/>
      <stop offset="0.62" stop-color="#2457ff"/>
      <stop offset="1" stop-color="#153fcf"/>
    </radialGradient>
    <linearGradient id="coral" x1="0" x2="1" y1="0" y2="1">
      <stop offset="0" stop-color="#ff9b82"/>
      <stop offset="1" stop-color="#ff6475"/>
    </linearGradient>
    <linearGradient id="cardBlue" x1="0" x2="1" y1="0" y2="1">
      <stop offset="0" stop-color="#7db0ff"/>
      <stop offset="1" stop-color="#2862ff"/>
    </linearGradient>
    <linearGradient id="metal" x1="0" x2="1">
      <stop offset="0" stop-color="#2e3563"/>
      <stop offset="0.25" stop-color="#f7f2e6"/>
      <stop offset="0.52" stop-color="#b9b1a5"/>
      <stop offset="0.78" stop-color="#fffaf0"/>
      <stop offset="1" stop-color="#171f55"/>
    </linearGradient>
    <linearGradient id="micDark" x1="0" x2="0" y1="0" y2="1">
      <stop offset="0" stop-color="#2e376c"/>
      <stop offset="1" stop-color="#11194a"/>
    </linearGradient>
    <filter id="shadow" x="-25%" y="-25%" width="150%" height="160%">
      <feDropShadow dx="0" dy="26" stdDeviation="22" flood-color="#10183d" flood-opacity="0.26"/>
    </filter>
    <filter id="soft" x="-25%" y="-25%" width="150%" height="150%">
      <feDropShadow dx="0" dy="14" stdDeviation="14" flood-color="#10183d" flood-opacity="0.16"/>
    </filter>
    <clipPath id="micClip"><rect x="342" y="286" width="216" height="338" rx="108"/></clipPath>
  </defs>
  <rect width="900" height="900" fill="#fffaf2"/>
  <ellipse cx="462" cy="457" rx="365" ry="365" fill="url(#bgBlue)"/>
  <path d="M118 682c116-19 146-109 264-65 91 34 145 6 215-55 79-69 162-61 224-19v153c-98 82-223 120-375 109-133-10-242-51-328-123z" fill="#0e35bf" opacity="0.35"/>

  <g filter="url(#soft)">
    <path d="M172 130h230c43 0 78 35 78 78v62c0 43-35 78-78 78H286l-82 71 24-71h-56c-43 0-78-35-78-78v-62c0-43 35-78 78-78z" fill="url(#coral)"/>
    <path d="M682 172H531c-40 0-72 32-72 72v50c0 40 32 72 72 72h89l66 56-17-56h13c40 0 72-32 72-72v-50c0-40-32-72-72-72z" fill="#6ea0ff"/>
    <circle cx="248" cy="241" r="15" fill="#fff6e8"/>
    <circle cx="300" cy="241" r="15" fill="#fff6e8"/>
    <circle cx="352" cy="241" r="15" fill="#fff6e8"/>
    <circle cx="541" cy="270" r="15" fill="#fff6e8"/>
    <circle cx="588" cy="270" r="15" fill="#fff6e8"/>
    <circle cx="635" cy="270" r="15" fill="#fff6e8"/>
    <path d="M276 178c-25-34-82 4-49 43l49 48 49-48c33-39-24-77-49-43z" fill="#fff6e8"/>
  </g>

  <g filter="url(#soft)">
    <g transform="rotate(-10 204 535)">
      <rect x="98" y="413" width="192" height="250" rx="34" fill="url(#cardBlue)"/>
      <circle cx="194" cy="501" r="42" fill="#ffe2d7"/>
      <path d="M156 504c17-52 72-55 90-4-12-20-70-21-90 4z" fill="#12225a" opacity="0.72"/>
      <path d="M141 611h108" stroke="#fff4de" stroke-width="16" stroke-linecap="round"/>
      <path d="M141 645h78" stroke="#fff4de" stroke-width="13" stroke-linecap="round"/>
    </g>
    <g transform="rotate(-2 294 458)">
      <rect x="221" y="347" width="154" height="210" rx="30" fill="url(#coral)"/>
      <circle cx="298" cy="421" r="39" fill="#ffe2d7"/>
      <path d="M267 421c10-48 60-56 72-8-19-16-49-15-72 8z" fill="#34254c" opacity="0.74"/>
      <path d="M252 512h91" stroke="#fff4de" stroke-width="13" stroke-linecap="round"/>
      <path d="M252 541h65" stroke="#fff4de" stroke-width="11" stroke-linecap="round"/>
    </g>
    <g transform="rotate(5 638 475)">
      <rect x="566" y="365" width="154" height="210" rx="30" fill="url(#cardBlue)"/>
      <circle cx="643" cy="439" r="39" fill="#ffe2d7"/>
      <path d="M610 439c12-46 58-54 71-6-17-15-48-15-71 6z" fill="#16245c" opacity="0.76"/>
      <path d="M596 530h91" stroke="#fff4de" stroke-width="13" stroke-linecap="round"/>
      <path d="M596 559h65" stroke="#fff4de" stroke-width="11" stroke-linecap="round"/>
    </g>
    <g transform="rotate(9 735 544)">
      <rect x="662" y="433" width="154" height="210" rx="30" fill="url(#coral)"/>
      <circle cx="739" cy="507" r="39" fill="#ffe2d7"/>
      <path d="M707 506c12-45 57-54 72-7-18-14-49-14-72 7z" fill="#38284f" opacity="0.7"/>
      <path d="M692 598h91" stroke="#fff4de" stroke-width="13" stroke-linecap="round"/>
      <path d="M692 627h65" stroke="#fff4de" stroke-width="11" stroke-linecap="round"/>
    </g>
  </g>

  <g filter="url(#shadow)">
    <rect x="342" y="286" width="216" height="338" rx="108" fill="url(#metal)"/>
    <g clip-path="url(#micClip)">
      <path d="M342 415h216v124c0 60-48 108-108 108s-108-48-108-108V415z" fill="url(#micDark)"/>
      <path d="M366 310c42-29 126-29 168 0" stroke="#6b6257" stroke-width="5" opacity="0.42"/>
      <path d="M361 336c48-22 130-22 178 0" stroke="#6b6257" stroke-width="5" opacity="0.42"/>
      <path d="M358 363c52-17 132-17 184 0" stroke="#6b6257" stroke-width="5" opacity="0.42"/>
      <path d="M358 445h184" stroke="#7d8bd8" stroke-width="10" stroke-linecap="round"/>
      <path d="M378 494h144" stroke="#7d8bd8" stroke-width="9" stroke-linecap="round"/>
      <path d="M378 543h144" stroke="#7d8bd8" stroke-width="9" stroke-linecap="round"/>
    </g>
    <circle cx="450" cy="504" r="20" fill="#3d477b"/>
    <path d="M295 442v103c0 86 69 155 155 155s155-69 155-155V442" fill="none" stroke="#10183d" stroke-width="19" stroke-linecap="round"/>
    <path d="M450 700v74" stroke="#10183d" stroke-width="21" stroke-linecap="round"/>
    <path d="M365 793h170" stroke="#10183d" stroke-width="27" stroke-linecap="round"/>
  </g>

  <g filter="url(#soft)">
    <path d="M158 708h185c34 0 62 28 62 62v52H173c-39 0-70-31-70-70v-2c0-23 19-42 55-42z" fill="#fff1d8"/>
    <path d="M146 704c78-36 161-33 247 0" fill="none" stroke="#ff6475" stroke-width="13" stroke-linecap="round"/>
    <path d="M188 754h130" stroke="#ffc0a8" stroke-width="8" stroke-linecap="round"/>
    <path d="M188 784h92" stroke="#ffc0a8" stroke-width="8" stroke-linecap="round"/>
    <rect x="638" y="674" width="116" height="116" rx="26" fill="#ff7b69"/>
    <path d="M754 705h31c24 0 44 20 44 44s-20 44-44 44h-31" fill="none" stroke="#ffa08a" stroke-width="23"/>
    <path d="M664 611c-31-45-102 2-59 55l59 58 59-58c43-53-28-100-59-55z" fill="#ff6475"/>
    <path d="M785 724c29-22 48-51 55-87" stroke="#fff3df" stroke-width="10" stroke-linecap="round"/>
    <path d="M822 677c14-19 32-30 55-33" stroke="#ff8890" stroke-width="10" stroke-linecap="round"/>
  </g>

  <circle cx="131" cy="354" r="18" fill="#ff8b83"/>
  <circle cx="765" cy="354" r="18" fill="#fff7e8"/>
  <circle cx="783" cy="161" r="28" fill="#ff6475"/>
  <circle cx="112" cy="194" r="22" fill="#fff7e8"/>
</svg>
