<svg xmlns="http://www.w3.org/2000/svg" viewBox="0 0 900 900" role="img" aria-labelledby="title desc">
  <title id="title">MBTI relationship podcast hero artwork</title>
  <desc id="desc">A bright blue and coral podcast illustration with a microphone, chat bubbles, personality cards, and relationship storytelling symbols.</desc>
  <defs>
    <linearGradient id="blue" x1="0" x2="1" y1="0" y2="1">
      <stop offset="0" stop-color="#2457ff"/>
      <stop offset="1" stop-color="#7190ff"/>
    </linearGradient>
    <linearGradient id="coral" x1="0" x2="1" y1="0" y2="1">
      <stop offset="0" stop-color="#ff6475"/>
      <stop offset="1" stop-color="#ff9b82"/>
    </linearGradient>
    <filter id="shadow" x="-20%" y="-20%" width="140%" height="150%">
      <feDropShadow dx="0" dy="20" stdDeviation="22" flood-color="#10205a" flood-opacity="0.22"/>
    </filter>
    <filter id="soft" x="-20%" y="-20%" width="140%" height="140%">
      <feDropShadow dx="0" dy="10" stdDeviation="12" flood-color="#10205a" flood-opacity="0.15"/>
    </filter>
  </defs>
  <rect width="900" height="900" fill="#fffaf2"/>
  <circle cx="460" cy="450" r="355" fill="url(#blue)"/>
  <path d="M123 669c119-28 143-112 260-71 91 32 132 8 198-48 76-65 155-63 225-25v175c-105 79-227 112-365 99-129-13-233-58-318-130z" fill="#153fcf" opacity="0.42"/>
  <g filter="url(#soft)">
    <path d="M182 177h222c39 0 71 32 71 71v58c0 39-32 71-71 71H273l-70 60 18-60h-39c-39 0-71-32-71-71v-58c0-39 32-71 71-71z" fill="url(#coral)"/>
    <path d="M676 205H529c-36 0-65 29-65 65v44c0 36 29 65 65 65h83l57 49-14-49h21c36 0 65-29 65-65v-44c0-36-29-65-65-65z" fill="#6da0ff"/>
    <circle cx="246" cy="281" r="17" fill="#fff7e8"/>
    <circle cx="300" cy="281" r="17" fill="#fff7e8"/>
    <circle cx="354" cy="281" r="17" fill="#fff7e8"/>
    <circle cx="543" cy="292" r="15" fill="#fff7e8"/>
    <circle cx="590" cy="292" r="15" fill="#fff7e8"/>
    <circle cx="637" cy="292" r="15" fill="#fff7e8"/>
    <path d="M246 225c-29-44-101 1-59 50l59 58 59-58c42-49-30-94-59-50z" fill="#fff7e8"/>
  </g>
  <g filter="url(#shadow)">
    <rect x="343" y="322" width="214" height="307" rx="107" fill="#f7f0df"/>
    <path d="M343 429h214v93c0 59-48 107-107 107s-107-48-107-107v-93z" fill="#141d56"/>
    <path d="M373 433h154" stroke="#6877bd" stroke-width="10" stroke-linecap="round"/>
    <path d="M373 485h154" stroke="#6877bd" stroke-width="10" stroke-linecap="round"/>
    <path d="M373 537h154" stroke="#6877bd" stroke-width="10" stroke-linecap="round"/>
    <circle cx="450" cy="495" r="20" fill="#394476"/>
    <path d="M298 455v92c0 84 68 152 152 152s152-68 152-152v-92" fill="none" stroke="#10183d" stroke-width="19" stroke-linecap="round"/>
    <path d="M450 699v73" stroke="#10183d" stroke-width="20" stroke-linecap="round"/>
    <path d="M362 790h176" stroke="#10183d" stroke-width="26" stroke-linecap="round"/>
  </g>
  <g filter="url(#soft)">
    <g transform="rotate(-10 198 540)">
      <rect x="103" y="431" width="190" height="240" rx="34" fill="#2d64ff"/>
      <circle cx="198" cy="512" r="43" fill="#ffe5d7"/>
      <path d="M145 619h104" stroke="#fff7e8" stroke-width="17" stroke-linecap="round"/>
      <path d="M145 651h75" stroke="#fff7e8" stroke-width="14" stroke-linecap="round"/>
      <text x="198" y="390" text-anchor="middle" font-family="Arial, sans-serif" font-size="34" font-weight="800" fill="#fff">ENTP</text>
    </g>
    <g transform="rotate(8 696 540)">
      <rect x="604" y="423" width="184" height="240" rx="34" fill="url(#coral)"/>
      <circle cx="696" cy="504" r="43" fill="#ffe5d7"/>
      <path d="M643 611h106" stroke="#fff7e8" stroke-width="17" stroke-linecap="round"/>
      <path d="M643 644h76" stroke="#fff7e8" stroke-width="14" stroke-linecap="round"/>
      <text x="696" y="388" text-anchor="middle" font-family="Arial, sans-serif" font-size="34" font-weight="800" fill="#fff">INFP</text>
    </g>
  </g>
  <g filter="url(#soft)">
    <path d="M189 707h174c27 0 49 22 49 49v61H196c-31 0-56-25-56-56v-5c0-27 22-49 49-49z" fill="#fff4df"/>
    <path d="M195 751h130" stroke="#ffc3ad" stroke-width="8" stroke-linecap="round"/>
    <path d="M195 780h95" stroke="#ffc3ad" stroke-width="8" stroke-linecap="round"/>
    <path d="M161 715c78-36 152-34 222 0" fill="none" stroke="#ff6475" stroke-width="12" stroke-linecap="round"/>
    <rect x="610" y="682" width="112" height="108" rx="24" fill="#ff766f"/>
    <path d="M721 711h31c23 0 41 18 41 41s-18 41-41 41h-31" fill="none" stroke="#ff9b82" stroke-width="22"/>
    <path d="M666 621c-31-46-103 3-58 55l58 57 58-57c45-52-27-101-58-55z" fill="#ff6475"/>
  </g>
  <circle cx="141" cy="348" r="18" fill="#ff8b83"/>
  <circle cx="744" cy="357" r="18" fill="#fff7e8"/>
  <circle cx="767" cy="179" r="28" fill="#ff7d86"/>
  <circle cx="111" cy="194" r="22" fill="#fff7e8"/>
</svg>
